<svg xmlns="http://www.w3.org/2000/svg" xmlns:xlink="http://www.w3.org/1999/xlink" style="margin:auto;background:#202425;display:block;z-index:1;position:relative" width="1084" height="322" preserveAspectRatio="xMidYMid" viewBox="0 0 1084 322">
<defs>
  <pattern id="pid-0.2365982460873859" x="0" y="0" width="163.84" height="163.84" patternUnits="userSpaceOnUse">
    <g transform="scale(0.64)"><g>
  <line x1="10.527728074707495" x2="3.3647422142855867" y1="159.64817140696593" y2="166.8111572673878" stroke-width="5" stroke="#26292b" stroke-linecap="round"></line><line x1="10.527728074707495" x2="3.3647422142855867" y1="-352.35182859303404" y2="-345.1888427326122" stroke-width="5" stroke="#26292b" stroke-linecap="round"></line><line x1="266.5277280747075" x2="259.36474221428557" y1="-352.35182859303404" y2="-345.1888427326122" stroke-width="5" stroke="#26292b" stroke-linecap="round"></line><line x1="522.5277280747075" x2="515.3647422142856" y1="-352.35182859303404" y2="-345.1888427326122" stroke-width="5" stroke="#26292b" stroke-linecap="round"></line><line x1="10.527728074707495" x2="3.3647422142855867" y1="-96.35182859303407" y2="-89.18884273261219" stroke-width="5" stroke="#26292b" stroke-linecap="round"></line><line x1="266.5277280747075" x2="259.36474221428557" y1="-96.35182859303407" y2="-89.18884273261219" stroke-width="5" stroke="#26292b" stroke-linecap="round"></line><line x1="522.5277280747075" x2="515.3647422142856" y1="-96.35182859303407" y2="-89.18884273261219" stroke-width="5" stroke="#26292b" stroke-linecap="round"></line><line x1="10.527728074707495" x2="3.3647422142855867" y1="159.64817140696593" y2="166.8111572673878" stroke-width="5" stroke="#26292b" stroke-linecap="round"></line><line x1="266.5277280747075" x2="259.36474221428557" y1="159.64817140696593" y2="166.8111572673878" stroke-width="5" stroke="#26292b" stroke-linecap="round"></line><line x1="522.5277280747075" x2="515.3647422142856" y1="159.64817140696593" y2="166.8111572673878" stroke-width="5" stroke="#26292b" stroke-linecap="round"></line><line x1="132.1965369490985" x2="116.96847027824626" y1="53.39262259616683" y2="68.62068926701906" stroke-width="5" stroke="#26292b" stroke-linecap="round"></line><line x1="132.1965369490985" x2="116.96847027824626" y1="-458.6073774038332" y2="-443.3793107329809" stroke-width="5" stroke="#26292b" stroke-linecap="round"></line><line x1="388.19653694909846" x2="372.9684702782463" y1="-458.6073774038332" y2="-443.3793107329809" stroke-width="5" stroke="#26292b" stroke-linecap="round"></line><line x1="644.1965369490985" x2="628.9684702782463" y1="-458.6073774038332" y2="-443.3793107329809" stroke-width="5" stroke="#26292b" stroke-linecap="round"></line><line x1="132.1965369490985" x2="116.96847027824626" y1="-202.60737740383317" y2="-187.37931073298094" stroke-width="5" stroke="#26292b" stroke-linecap="round"></line><line x1="388.19653694909846" x2="372.9684702782463" y1="-202.60737740383317" y2="-187.37931073298094" stroke-width="5" stroke="#26292b" stroke-linecap="round"></line><line x1="644.1965369490985" x2="628.9684702782463" y1="-202.60737740383317" y2="-187.37931073298094" stroke-width="5" stroke="#26292b" stroke-linecap="round"></line><line x1="132.1965369490985" x2="116.96847027824626" y1="53.39262259616683" y2="68.62068926701906" stroke-width="5" stroke="#26292b" stroke-linecap="round"></line><line x1="388.19653694909846" x2="372.9684702782463" y1="53.39262259616683" y2="68.62068926701906" stroke-width="5" stroke="#26292b" stroke-linecap="round"></line><line x1="644.1965369490985" x2="628.9684702782463" y1="53.39262259616683" y2="68.62068926701906" stroke-width="5" stroke="#26292b" stroke-linecap="round"></line><line x1="135.30128219968938" x2="107.58481001271375" y1="67.16605004360375" y2="94.88252223057938" stroke-width="5" stroke="#26292b" stroke-linecap="round"></line><line x1="135.30128219968938" x2="107.58481001271375" y1="-444.8339499563963" y2="-417.1174777694206" stroke-width="5" stroke="#26292b" stroke-linecap="round"></line><line x1="391.30128219968935" x2="363.5848100127138" y1="-444.8339499563963" y2="-417.1174777694206" stroke-width="5" stroke="#26292b" stroke-linecap="round"></line><line x1="647.3012821996894" x2="619.5848100127138" y1="-444.8339499563963" y2="-417.1174777694206" stroke-width="5" stroke="#26292b" stroke-linecap="round"></line><line x1="135.30128219968938" x2="107.58481001271375" y1="-188.83394995639625" y2="-161.11747776942062" stroke-width="5" stroke="#26292b" stroke-linecap="round"></line><line x1="391.30128219968935" x2="363.5848100127138" y1="-188.83394995639625" y2="-161.11747776942062" stroke-width="5" stroke="#26292b" stroke-linecap="round"></line><line x1="647.3012821996894" x2="619.5848100127138" y1="-188.83394995639625" y2="-161.11747776942062" stroke-width="5" stroke="#26292b" stroke-linecap="round"></line><line x1="135.30128219968938" x2="107.58481001271375" y1="67.16605004360375" y2="94.88252223057938" stroke-width="5" stroke="#26292b" stroke-linecap="round"></line><line x1="391.30128219968935" x2="363.5848100127138" y1="67.16605004360375" y2="94.88252223057938" stroke-width="5" stroke="#26292b" stroke-linecap="round"></line><line x1="647.3012821996894" x2="619.5848100127138" y1="67.16605004360375" y2="94.88252223057938" stroke-width="5" stroke="#26292b" stroke-linecap="round"></line><line x1="14.268126868162458" x2="-1.694270701094557" y1="-4.781845717805003" y2="11.180551851452012" stroke-width="5" stroke="#26292b" stroke-linecap="round"></line><line x1="14.268126868162458" x2="-1.694270701094557" y1="-516.781845717805" y2="-500.81944814854796" stroke-width="5" stroke="#26292b" stroke-linecap="round"></line><line x1="270.2681268681625" x2="254.30572929890545" y1="-516.781845717805" y2="-500.81944814854796" stroke-width="5" stroke="#26292b" stroke-linecap="round"></line><line x1="526.2681268681624" x2="510.3057292989054" y1="-516.781845717805" y2="-500.81944814854796" stroke-width="5" stroke="#26292b" stroke-linecap="round"></line><line x1="14.268126868162458" x2="-1.694270701094557" y1="-260.781845717805" y2="-244.819448148548" stroke-width="5" stroke="#26292b" stroke-linecap="round"></line><line x1="270.2681268681625" x2="254.30572929890545" y1="-260.781845717805" y2="-244.819448148548" stroke-width="5" stroke="#26292b" stroke-linecap="round"></line><line x1="526.2681268681624" x2="510.3057292989054" y1="-260.781845717805" y2="-244.819448148548" stroke-width="5" stroke="#26292b" stroke-linecap="round"></line><line x1="14.268126868162458" x2="-1.694270701094557" y1="-4.781845717805003" y2="11.180551851452012" stroke-width="5" stroke="#26292b" stroke-linecap="round"></line><line x1="270.2681268681625" x2="254.30572929890545" y1="-4.781845717805003" y2="11.180551851452012" stroke-width="5" stroke="#26292b" stroke-linecap="round"></line><line x1="526.2681268681624" x2="510.3057292989054" y1="-4.781845717805003" y2="11.180551851452012" stroke-width="5" stroke="#26292b" stroke-linecap="round"></line><line x1="14.268126868162458" x2="-1.694270701094557" y1="251.218154282195" y2="267.18055185145204" stroke-width="5" stroke="#26292b" stroke-linecap="round"></line><line x1="38.40998532314387" x2="20.094780733909655" y1="48.707612223015474" y2="67.02281681224969" stroke-width="5" stroke="#26292b" stroke-linecap="round"></line><line x1="38.40998532314387" x2="20.094780733909655" y1="-463.2923877769845" y2="-444.9771831877503" stroke-width="5" stroke="#26292b" stroke-linecap="round"></line><line x1="294.40998532314387" x2="276.09478073390966" y1="-463.2923877769845" y2="-444.9771831877503" stroke-width="5" stroke="#26292b" stroke-linecap="round"></line><line x1="550.4099853231439" x2="532.0947807339096" y1="-463.2923877769845" y2="-444.9771831877503" stroke-width="5" stroke="#26292b" stroke-linecap="round"></line><line x1="38.40998532314387" x2="20.094780733909655" y1="-207.29238777698453" y2="-188.9771831877503" stroke-width="5" stroke="#26292b" stroke-linecap="round"></line><line x1="294.40998532314387" x2="276.09478073390966" y1="-207.29238777698453" y2="-188.9771831877503" stroke-width="5" stroke="#26292b" stroke-linecap="round"></line><line x1="550.4099853231439" x2="532.0947807339096" y1="-207.29238777698453" y2="-188.9771831877503" stroke-width="5" stroke="#26292b" stroke-linecap="round"></line><line x1="38.40998532314387" x2="20.094780733909655" y1="48.707612223015474" y2="67.02281681224969" stroke-width="5" stroke="#26292b" stroke-linecap="round"></line><line x1="294.40998532314387" x2="276.09478073390966" y1="48.707612223015474" y2="67.02281681224969" stroke-width="5" stroke="#26292b" stroke-linecap="round"></line><line x1="550.4099853231439" x2="532.0947807339096" y1="48.707612223015474" y2="67.02281681224969" stroke-width="5" stroke="#26292b" stroke-linecap="round"></line><line x1="43.24651188258247" x2="15.932278978438037" y1="206.10704803206244" y2="233.42128093620687" stroke-width="5" stroke="#26292b" stroke-linecap="round"></line><line x1="43.24651188258247" x2="15.932278978438037" y1="-305.89295196793756" y2="-278.57871906379313" stroke-width="5" stroke="#26292b" stroke-linecap="round"></line><line x1="299.24651188258247" x2="271.93227897843803" y1="-305.89295196793756" y2="-278.57871906379313" stroke-width="5" stroke="#26292b" stroke-linecap="round"></line><line x1="555.2465118825825" x2="527.932278978438" y1="-305.89295196793756" y2="-278.57871906379313" stroke-width="5" stroke="#26292b" stroke-linecap="round"></line><line x1="43.24651188258247" x2="15.932278978438037" y1="-49.89295196793756" y2="-22.57871906379313" stroke-width="5" stroke="#26292b" stroke-linecap="round"></line><line x1="299.24651188258247" x2="271.93227897843803" y1="-49.89295196793756" y2="-22.57871906379313" stroke-width="5" stroke="#26292b" stroke-linecap="round"></line><line x1="555.2465118825825" x2="527.932278978438" y1="-49.89295196793756" y2="-22.57871906379313" stroke-width="5" stroke="#26292b" stroke-linecap="round"></line><line x1="43.24651188258247" x2="15.932278978438037" y1="206.10704803206244" y2="233.42128093620687" stroke-width="5" stroke="#26292b" stroke-linecap="round"></line><line x1="299.24651188258247" x2="271.93227897843803" y1="206.10704803206244" y2="233.42128093620687" stroke-width="5" stroke="#26292b" stroke-linecap="round"></line><line x1="555.2465118825825" x2="527.932278978438" y1="206.10704803206244" y2="233.42128093620687" stroke-width="5" stroke="#26292b" stroke-linecap="round"></line><line x1="177.03517047679634" x2="162.6511342674563" y1="108.63682503608662" y2="123.02086124542667" stroke-width="5" stroke="#26292b" stroke-linecap="round"></line><line x1="177.03517047679634" x2="162.6511342674563" y1="-403.36317496391337" y2="-388.97913875457334" stroke-width="5" stroke="#26292b" stroke-linecap="round"></line><line x1="433.03517047679634" x2="418.6511342674563" y1="-403.36317496391337" y2="-388.97913875457334" stroke-width="5" stroke="#26292b" stroke-linecap="round"></line><line x1="689.0351704767963" x2="674.6511342674563" y1="-403.36317496391337" y2="-388.97913875457334" stroke-width="5" stroke="#26292b" stroke-linecap="round"></line><line x1="177.03517047679634" x2="162.6511342674563" y1="-147.36317496391337" y2="-132.97913875457334" stroke-width="5" stroke="#26292b" stroke-linecap="round"></line><line x1="433.03517047679634" x2="418.6511342674563" y1="-147.36317496391337" y2="-132.97913875457334" stroke-width="5" stroke="#26292b" stroke-linecap="round"></line><line x1="689.0351704767963" x2="674.6511342674563" y1="-147.36317496391337" y2="-132.97913875457334" stroke-width="5" stroke="#26292b" stroke-linecap="round"></line><line x1="177.03517047679634" x2="162.6511342674563" y1="108.63682503608662" y2="123.02086124542667" stroke-width="5" stroke="#26292b" stroke-linecap="round"></line><line x1="433.03517047679634" x2="418.6511342674563" y1="108.63682503608662" y2="123.02086124542667" stroke-width="5" stroke="#26292b" stroke-linecap="round"></line><line x1="689.0351704767963" x2="674.6511342674563" y1="108.63682503608662" y2="123.02086124542667" stroke-width="5" stroke="#26292b" stroke-linecap="round"></line><line x1="170.98730314235362" x2="142.94988177864766" y1="83.41430606482433" y2="111.45172742853029" stroke-width="5" stroke="#26292b" stroke-linecap="round"></line><line x1="170.98730314235362" x2="142.94988177864766" y1="-428.58569393517564" y2="-400.54827257146974" stroke-width="5" stroke="#26292b" stroke-linecap="round"></line><line x1="426.98730314235365" x2="398.94988177864764" y1="-428.58569393517564" y2="-400.54827257146974" stroke-width="5" stroke="#26292b" stroke-linecap="round"></line><line x1="682.9873031423537" x2="654.9498817786476" y1="-428.58569393517564" y2="-400.54827257146974" stroke-width="5" stroke="#26292b" stroke-linecap="round"></line><line x1="170.98730314235362" x2="142.94988177864766" y1="-172.58569393517567" y2="-144.5482725714697" stroke-width="5" stroke="#26292b" stroke-linecap="round"></line><line x1="426.98730314235365" x2="398.94988177864764" y1="-172.58569393517567" y2="-144.5482725714697" stroke-width="5" stroke="#26292b" stroke-linecap="round"></line><line x1="682.9873031423537" x2="654.9498817786476" y1="-172.58569393517567" y2="-144.5482725714697" stroke-width="5" stroke="#26292b" stroke-linecap="round"></line><line x1="170.98730314235362" x2="142.94988177864766" y1="83.41430606482433" y2="111.45172742853029" stroke-width="5" stroke="#26292b" stroke-linecap="round"></line><line x1="426.98730314235365" x2="398.94988177864764" y1="83.41430606482433" y2="111.45172742853029" stroke-width="5" stroke="#26292b" stroke-linecap="round"></line><line x1="682.9873031423537" x2="654.9498817786476" y1="83.41430606482433" y2="111.45172742853029" stroke-width="5" stroke="#26292b" stroke-linecap="round"></line><line x1="80.70016542527594" x2="51.24788391938557" y1="34.697403947686496" y2="64.14968545357686" stroke-width="5" stroke="#26292b" stroke-linecap="round"></line><line x1="80.70016542527594" x2="51.24788391938557" y1="-477.3025960523135" y2="-447.85031454642314" stroke-width="5" stroke="#26292b" stroke-linecap="round"></line><line x1="336.70016542527594" x2="307.2478839193856" y1="-477.3025960523135" y2="-447.85031454642314" stroke-width="5" stroke="#26292b" stroke-linecap="round"></line><line x1="592.7001654252759" x2="563.2478839193856" y1="-477.3025960523135" y2="-447.85031454642314" stroke-width="5" stroke="#26292b" stroke-linecap="round"></line><line x1="80.70016542527594" x2="51.24788391938557" y1="-221.3025960523135" y2="-191.85031454642314" stroke-width="5" stroke="#26292b" stroke-linecap="round"></line><line x1="336.70016542527594" x2="307.2478839193856" y1="-221.3025960523135" y2="-191.85031454642314" stroke-width="5" stroke="#26292b" stroke-linecap="round"></line><line x1="592.7001654252759" x2="563.2478839193856" y1="-221.3025960523135" y2="-191.85031454642314" stroke-width="5" stroke="#26292b" stroke-linecap="round"></line><line x1="80.70016542527594" x2="51.24788391938557" y1="34.697403947686496" y2="64.14968545357686" stroke-width="5" stroke="#26292b" stroke-linecap="round"></line><line x1="336.70016542527594" x2="307.2478839193856" y1="34.697403947686496" y2="64.14968545357686" stroke-width="5" stroke="#26292b" stroke-linecap="round"></line><line x1="592.7001654252759" x2="563.2478839193856" y1="34.697403947686496" y2="64.14968545357686" stroke-width="5" stroke="#26292b" stroke-linecap="round"></line><line x1="27.502820212111125" x2="10.951673161042002" y1="137.32970936884325" y2="153.88085641991236" stroke-width="5" stroke="#26292b" stroke-linecap="round"></line><line x1="27.502820212111125" x2="10.951673161042002" y1="-374.6702906311567" y2="-358.11914358008767" stroke-width="5" stroke="#26292b" stroke-linecap="round"></line><line x1="283.50282021211115" x2="266.951673161042" y1="-374.6702906311567" y2="-358.11914358008767" stroke-width="5" stroke="#26292b" stroke-linecap="round"></line><line x1="539.5028202121111" x2="522.951673161042" y1="-374.6702906311567" y2="-358.11914358008767" stroke-width="5" stroke="#26292b" stroke-linecap="round"></line><line x1="27.502820212111125" x2="10.951673161042002" y1="-118.67029063115675" y2="-102.11914358008764" stroke-width="5" stroke="#26292b" stroke-linecap="round"></line><line x1="283.50282021211115" x2="266.951673161042" y1="-118.67029063115675" y2="-102.11914358008764" stroke-width="5" stroke="#26292b" stroke-linecap="round"></line><line x1="539.5028202121111" x2="522.951673161042" y1="-118.67029063115675" y2="-102.11914358008764" stroke-width="5" stroke="#26292b" stroke-linecap="round"></line><line x1="27.502820212111125" x2="10.951673161042002" y1="137.32970936884325" y2="153.88085641991236" stroke-width="5" stroke="#26292b" stroke-linecap="round"></line><line x1="283.50282021211115" x2="266.951673161042" y1="137.32970936884325" y2="153.88085641991236" stroke-width="5" stroke="#26292b" stroke-linecap="round"></line><line x1="539.5028202121111" x2="522.951673161042" y1="137.32970936884325" y2="153.88085641991236" stroke-width="5" stroke="#26292b" stroke-linecap="round"></line><line x1="58.31908694483974" x2="28.37241465109372" y1="110.51365302917003" y2="140.46032532291605" stroke-width="5" stroke="#26292b" stroke-linecap="round"></line><line x1="58.31908694483974" x2="28.37241465109372" y1="-401.48634697082997" y2="-371.53967467708395" stroke-width="5" stroke="#26292b" stroke-linecap="round"></line><line x1="314.31908694483974" x2="284.3724146510937" y1="-401.48634697082997" y2="-371.53967467708395" stroke-width="5" stroke="#26292b" stroke-linecap="round"></line><line x1="570.3190869448397" x2="540.3724146510938" y1="-401.48634697082997" y2="-371.53967467708395" stroke-width="5" stroke="#26292b" stroke-linecap="round"></line><line x1="58.31908694483974" x2="28.37241465109372" y1="-145.48634697082997" y2="-115.53967467708395" stroke-width="5" stroke="#26292b" stroke-linecap="round"></line><line x1="314.31908694483974" x2="284.3724146510937" y1="-145.48634697082997" y2="-115.53967467708395" stroke-width="5" stroke="#26292b" stroke-linecap="round"></line><line x1="570.3190869448397" x2="540.3724146510938" y1="-145.48634697082997" y2="-115.53967467708395" stroke-width="5" stroke="#26292b" stroke-linecap="round"></line><line x1="58.31908694483974" x2="28.37241465109372" y1="110.51365302917003" y2="140.46032532291605" stroke-width="5" stroke="#26292b" stroke-linecap="round"></line><line x1="314.31908694483974" x2="284.3724146510937" y1="110.51365302917003" y2="140.46032532291605" stroke-width="5" stroke="#26292b" stroke-linecap="round"></line><line x1="570.3190869448397" x2="540.3724146510938" y1="110.51365302917003" y2="140.46032532291605" stroke-width="5" stroke="#26292b" stroke-linecap="round"></line>
  <animateTransform attributeName="transform" type="translate" values="0 0;-256 256" keyTimes="0;1" repeatCount="indefinite" dur="33.333333333333336s"></animateTransform>
</g><g>
  <line x1="155.43529517574524" x2="133.5063698155945" y1="85.31826242809079" y2="107.24718778824156" stroke-width="5" stroke="#2b2f31" stroke-linecap="round"></line><line x1="155.43529517574524" x2="133.5063698155945" y1="-426.6817375719092" y2="-404.75281221175845" stroke-width="5" stroke="#2b2f31" stroke-linecap="round"></line><line x1="411.43529517574524" x2="389.5063698155945" y1="-426.6817375719092" y2="-404.75281221175845" stroke-width="5" stroke="#2b2f31" stroke-linecap="round"></line><line x1="667.4352951757453" x2="645.5063698155946" y1="-426.6817375719092" y2="-404.75281221175845" stroke-width="5" stroke="#2b2f31" stroke-linecap="round"></line><line x1="155.43529517574524" x2="133.5063698155945" y1="-170.6817375719092" y2="-148.75281221175845" stroke-width="5" stroke="#2b2f31" stroke-linecap="round"></line><line x1="411.43529517574524" x2="389.5063698155945" y1="-170.6817375719092" y2="-148.75281221175845" stroke-width="5" stroke="#2b2f31" stroke-linecap="round"></line><line x1="667.4352951757453" x2="645.5063698155946" y1="-170.6817375719092" y2="-148.75281221175845" stroke-width="5" stroke="#2b2f31" stroke-linecap="round"></line><line x1="155.43529517574524" x2="133.5063698155945" y1="85.31826242809079" y2="107.24718778824156" stroke-width="5" stroke="#2b2f31" stroke-linecap="round"></line><line x1="411.43529517574524" x2="389.5063698155945" y1="85.31826242809079" y2="107.24718778824156" stroke-width="5" stroke="#2b2f31" stroke-linecap="round"></line><line x1="667.4352951757453" x2="645.5063698155946" y1="85.31826242809079" y2="107.24718778824156" stroke-width="5" stroke="#2b2f31" stroke-linecap="round"></line><line x1="27.91224955345232" x2="17.81874935493746" y1="55.6732520803853" y2="65.76675227890016" stroke-width="5" stroke="#2b2f31" stroke-linecap="round"></line><line x1="27.91224955345232" x2="17.81874935493746" y1="-456.3267479196147" y2="-446.2332477210998" stroke-width="5" stroke="#2b2f31" stroke-linecap="round"></line><line x1="283.91224955345234" x2="273.81874935493744" y1="-456.3267479196147" y2="-446.2332477210998" stroke-width="5" stroke="#2b2f31" stroke-linecap="round"></line><line x1="539.9122495534523" x2="529.8187493549375" y1="-456.3267479196147" y2="-446.2332477210998" stroke-width="5" stroke="#2b2f31" stroke-linecap="round"></line><line x1="27.91224955345232" x2="17.81874935493746" y1="-200.3267479196147" y2="-190.23324772109984" stroke-width="5" stroke="#2b2f31" stroke-linecap="round"></line><line x1="283.91224955345234" x2="273.81874935493744" y1="-200.3267479196147" y2="-190.23324772109984" stroke-width="5" stroke="#2b2f31" stroke-linecap="round"></line><line x1="539.9122495534523" x2="529.8187493549375" y1="-200.3267479196147" y2="-190.23324772109984" stroke-width="5" stroke="#2b2f31" stroke-linecap="round"></line><line x1="27.91224955345232" x2="17.81874935493746" y1="55.6732520803853" y2="65.76675227890016" stroke-width="5" stroke="#2b2f31" stroke-linecap="round"></line><line x1="283.91224955345234" x2="273.81874935493744" y1="55.6732520803853" y2="65.76675227890016" stroke-width="5" stroke="#2b2f31" stroke-linecap="round"></line><line x1="539.9122495534523" x2="529.8187493549375" y1="55.6732520803853" y2="65.76675227890016" stroke-width="5" stroke="#2b2f31" stroke-linecap="round"></line><line x1="100.56440785482854" x2="73.29086278098694" y1="119.81467998373151" y2="147.0882250575731" stroke-width="5" stroke="#2b2f31" stroke-linecap="round"></line><line x1="100.56440785482854" x2="73.29086278098694" y1="-392.1853200162685" y2="-364.91177494242686" stroke-width="5" stroke="#2b2f31" stroke-linecap="round"></line><line x1="356.5644078548286" x2="329.2908627809869" y1="-392.1853200162685" y2="-364.91177494242686" stroke-width="5" stroke="#2b2f31" stroke-linecap="round"></line><line x1="612.5644078548286" x2="585.2908627809869" y1="-392.1853200162685" y2="-364.91177494242686" stroke-width="5" stroke="#2b2f31" stroke-linecap="round"></line><line x1="100.56440785482854" x2="73.29086278098694" y1="-136.1853200162685" y2="-108.91177494242689" stroke-width="5" stroke="#2b2f31" stroke-linecap="round"></line><line x1="356.5644078548286" x2="329.2908627809869" y1="-136.1853200162685" y2="-108.91177494242689" stroke-width="5" stroke="#2b2f31" stroke-linecap="round"></line><line x1="612.5644078548286" x2="585.2908627809869" y1="-136.1853200162685" y2="-108.91177494242689" stroke-width="5" stroke="#2b2f31" stroke-linecap="round"></line><line x1="100.56440785482854" x2="73.29086278098694" y1="119.81467998373151" y2="147.0882250575731" stroke-width="5" stroke="#2b2f31" stroke-linecap="round"></line><line x1="356.5644078548286" x2="329.2908627809869" y1="119.81467998373151" y2="147.0882250575731" stroke-width="5" stroke="#2b2f31" stroke-linecap="round"></line><line x1="612.5644078548286" x2="585.2908627809869" y1="119.81467998373151" y2="147.0882250575731" stroke-width="5" stroke="#2b2f31" stroke-linecap="round"></line><line x1="175.56655008552133" x2="152.2192000652862" y1="229.23733275105303" y2="252.58468277128816" stroke-width="5" stroke="#2b2f31" stroke-linecap="round"></line><line x1="175.56655008552133" x2="152.2192000652862" y1="-282.76266724894697" y2="-259.41531722871184" stroke-width="5" stroke="#2b2f31" stroke-linecap="round"></line><line x1="431.5665500855213" x2="408.2192000652862" y1="-282.76266724894697" y2="-259.41531722871184" stroke-width="5" stroke="#2b2f31" stroke-linecap="round"></line><line x1="687.5665500855214" x2="664.2192000652863" y1="-282.76266724894697" y2="-259.41531722871184" stroke-width="5" stroke="#2b2f31" stroke-linecap="round"></line><line x1="175.56655008552133" x2="152.2192000652862" y1="-26.76266724894697" y2="-3.4153172287118423" stroke-width="5" stroke="#2b2f31" stroke-linecap="round"></line><line x1="431.5665500855213" x2="408.2192000652862" y1="-26.76266724894697" y2="-3.4153172287118423" stroke-width="5" stroke="#2b2f31" stroke-linecap="round"></line><line x1="687.5665500855214" x2="664.2192000652863" y1="-26.76266724894697" y2="-3.4153172287118423" stroke-width="5" stroke="#2b2f31" stroke-linecap="round"></line><line x1="175.56655008552133" x2="152.2192000652862" y1="229.23733275105303" y2="252.58468277128816" stroke-width="5" stroke="#2b2f31" stroke-linecap="round"></line><line x1="431.5665500855213" x2="408.2192000652862" y1="229.23733275105303" y2="252.58468277128816" stroke-width="5" stroke="#2b2f31" stroke-linecap="round"></line><line x1="687.5665500855214" x2="664.2192000652863" y1="229.23733275105303" y2="252.58468277128816" stroke-width="5" stroke="#2b2f31" stroke-linecap="round"></line><line x1="141.89298319408763" x2="134.70809897252022" y1="60.99214604057842" y2="68.17703026214586" stroke-width="5" stroke="#2b2f31" stroke-linecap="round"></line><line x1="141.89298319408763" x2="134.70809897252022" y1="-451.0078539594216" y2="-443.8229697378541" stroke-width="5" stroke="#2b2f31" stroke-linecap="round"></line><line x1="397.8929831940876" x2="390.70809897252025" y1="-451.0078539594216" y2="-443.8229697378541" stroke-width="5" stroke="#2b2f31" stroke-linecap="round"></line><line x1="653.8929831940876" x2="646.7080989725202" y1="-451.0078539594216" y2="-443.8229697378541" stroke-width="5" stroke="#2b2f31" stroke-linecap="round"></line><line x1="141.89298319408763" x2="134.70809897252022" y1="-195.0078539594216" y2="-187.82296973785412" stroke-width="5" stroke="#2b2f31" stroke-linecap="round"></line><line x1="397.8929831940876" x2="390.70809897252025" y1="-195.0078539594216" y2="-187.82296973785412" stroke-width="5" stroke="#2b2f31" stroke-linecap="round"></line><line x1="653.8929831940876" x2="646.7080989725202" y1="-195.0078539594216" y2="-187.82296973785412" stroke-width="5" stroke="#2b2f31" stroke-linecap="round"></line><line x1="141.89298319408763" x2="134.70809897252022" y1="60.99214604057842" y2="68.17703026214586" stroke-width="5" stroke="#2b2f31" stroke-linecap="round"></line><line x1="397.8929831940876" x2="390.70809897252025" y1="60.99214604057842" y2="68.17703026214586" stroke-width="5" stroke="#2b2f31" stroke-linecap="round"></line><line x1="653.8929831940876" x2="646.7080989725202" y1="60.99214604057842" y2="68.17703026214586" stroke-width="5" stroke="#2b2f31" stroke-linecap="round"></line><line x1="229.0278143345681" x2="199.16004009651047" y1="75.6999765970804" y2="105.56775083513801" stroke-width="5" stroke="#2b2f31" stroke-linecap="round"></line><line x1="229.0278143345681" x2="199.16004009651047" y1="-436.3000234029196" y2="-406.432249164862" stroke-width="5" stroke="#2b2f31" stroke-linecap="round"></line><line x1="485.0278143345681" x2="455.16004009651044" y1="-436.3000234029196" y2="-406.432249164862" stroke-width="5" stroke="#2b2f31" stroke-linecap="round"></line><line x1="741.0278143345681" x2="711.1600400965104" y1="-436.3000234029196" y2="-406.432249164862" stroke-width="5" stroke="#2b2f31" stroke-linecap="round"></line><line x1="229.0278143345681" x2="199.16004009651047" y1="-180.3000234029196" y2="-150.432249164862" stroke-width="5" stroke="#2b2f31" stroke-linecap="round"></line><line x1="485.0278143345681" x2="455.16004009651044" y1="-180.3000234029196" y2="-150.432249164862" stroke-width="5" stroke="#2b2f31" stroke-linecap="round"></line><line x1="741.0278143345681" x2="711.1600400965104" y1="-180.3000234029196" y2="-150.432249164862" stroke-width="5" stroke="#2b2f31" stroke-linecap="round"></line><line x1="229.0278143345681" x2="199.16004009651047" y1="75.6999765970804" y2="105.56775083513801" stroke-width="5" stroke="#2b2f31" stroke-linecap="round"></line><line x1="485.0278143345681" x2="455.16004009651044" y1="75.6999765970804" y2="105.56775083513801" stroke-width="5" stroke="#2b2f31" stroke-linecap="round"></line><line x1="741.0278143345681" x2="711.1600400965104" y1="75.6999765970804" y2="105.56775083513801" stroke-width="5" stroke="#2b2f31" stroke-linecap="round"></line><line x1="97.33924088326168" x2="84.7724070998087" y1="208.17656509258327" y2="220.74339887603625" stroke-width="5" stroke="#2b2f31" stroke-linecap="round"></line><line x1="97.33924088326168" x2="84.7724070998087" y1="-303.82343490741675" y2="-291.2566011239637" stroke-width="5" stroke="#2b2f31" stroke-linecap="round"></line><line x1="353.3392408832617" x2="340.7724070998087" y1="-303.82343490741675" y2="-291.2566011239637" stroke-width="5" stroke="#2b2f31" stroke-linecap="round"></line><line x1="609.3392408832617" x2="596.7724070998087" y1="-303.82343490741675" y2="-291.2566011239637" stroke-width="5" stroke="#2b2f31" stroke-linecap="round"></line><line x1="97.33924088326168" x2="84.7724070998087" y1="-47.823434907416726" y2="-35.25660112396375" stroke-width="5" stroke="#2b2f31" stroke-linecap="round"></line><line x1="353.3392408832617" x2="340.7724070998087" y1="-47.823434907416726" y2="-35.25660112396375" stroke-width="5" stroke="#2b2f31" stroke-linecap="round"></line><line x1="609.3392408832617" x2="596.7724070998087" y1="-47.823434907416726" y2="-35.25660112396375" stroke-width="5" stroke="#2b2f31" stroke-linecap="round"></line><line x1="97.33924088326168" x2="84.7724070998087" y1="208.17656509258327" y2="220.74339887603625" stroke-width="5" stroke="#2b2f31" stroke-linecap="round"></line><line x1="353.3392408832617" x2="340.7724070998087" y1="208.17656509258327" y2="220.74339887603625" stroke-width="5" stroke="#2b2f31" stroke-linecap="round"></line><line x1="609.3392408832617" x2="596.7724070998087" y1="208.17656509258327" y2="220.74339887603625" stroke-width="5" stroke="#2b2f31" stroke-linecap="round"></line><line x1="166.70261052242859" x2="137.27169511618388" y1="27.203007880384625" y2="56.63392328662935" stroke-width="5" stroke="#2b2f31" stroke-linecap="round"></line><line x1="166.70261052242859" x2="137.27169511618388" y1="-484.79699211961537" y2="-455.36607671337066" stroke-width="5" stroke="#2b2f31" stroke-linecap="round"></line><line x1="422.7026105224286" x2="393.2716951161839" y1="-484.79699211961537" y2="-455.36607671337066" stroke-width="5" stroke="#2b2f31" stroke-linecap="round"></line><line x1="678.7026105224286" x2="649.2716951161839" y1="-484.79699211961537" y2="-455.36607671337066" stroke-width="5" stroke="#2b2f31" stroke-linecap="round"></line><line x1="166.70261052242859" x2="137.27169511618388" y1="-228.79699211961537" y2="-199.36607671337066" stroke-width="5" stroke="#2b2f31" stroke-linecap="round"></line><line x1="422.7026105224286" x2="393.2716951161839" y1="-228.79699211961537" y2="-199.36607671337066" stroke-width="5" stroke="#2b2f31" stroke-linecap="round"></line><line x1="678.7026105224286" x2="649.2716951161839" y1="-228.79699211961537" y2="-199.36607671337066" stroke-width="5" stroke="#2b2f31" stroke-linecap="round"></line><line x1="166.70261052242859" x2="137.27169511618388" y1="27.203007880384625" y2="56.63392328662935" stroke-width="5" stroke="#2b2f31" stroke-linecap="round"></line><line x1="422.7026105224286" x2="393.2716951161839" y1="27.203007880384625" y2="56.63392328662935" stroke-width="5" stroke="#2b2f31" stroke-linecap="round"></line><line x1="678.7026105224286" x2="649.2716951161839" y1="27.203007880384625" y2="56.63392328662935" stroke-width="5" stroke="#2b2f31" stroke-linecap="round"></line><line x1="44.10757458574934" x2="30.865024186056793" y1="150.66031017273778" y2="163.90286057243034" stroke-width="5" stroke="#2b2f31" stroke-linecap="round"></line><line x1="44.10757458574934" x2="30.865024186056793" y1="-361.3396898272622" y2="-348.0971394275697" stroke-width="5" stroke="#2b2f31" stroke-linecap="round"></line><line x1="300.1075745857493" x2="286.8650241860568" y1="-361.3396898272622" y2="-348.0971394275697" stroke-width="5" stroke="#2b2f31" stroke-linecap="round"></line><line x1="556.1075745857494" x2="542.8650241860568" y1="-361.3396898272622" y2="-348.0971394275697" stroke-width="5" stroke="#2b2f31" stroke-linecap="round"></line><line x1="44.10757458574934" x2="30.865024186056793" y1="-105.33968982726222" y2="-92.09713942756966" stroke-width="5" stroke="#2b2f31" stroke-linecap="round"></line><line x1="300.1075745857493" x2="286.8650241860568" y1="-105.33968982726222" y2="-92.09713942756966" stroke-width="5" stroke="#2b2f31" stroke-linecap="round"></line><line x1="556.1075745857494" x2="542.8650241860568" y1="-105.33968982726222" y2="-92.09713942756966" stroke-width="5" stroke="#2b2f31" stroke-linecap="round"></line><line x1="44.10757458574934" x2="30.865024186056793" y1="150.66031017273778" y2="163.90286057243034" stroke-width="5" stroke="#2b2f31" stroke-linecap="round"></line><line x1="300.1075745857493" x2="286.8650241860568" y1="150.66031017273778" y2="163.90286057243034" stroke-width="5" stroke="#2b2f31" stroke-linecap="round"></line><line x1="556.1075745857494" x2="542.8650241860568" y1="150.66031017273778" y2="163.90286057243034" stroke-width="5" stroke="#2b2f31" stroke-linecap="round"></line><line x1="214.20931363619306" x2="187.54127311860216" y1="208.98988715891542" y2="235.65792767650632" stroke-width="5" stroke="#2b2f31" stroke-linecap="round"></line><line x1="214.20931363619306" x2="187.54127311860216" y1="-303.0101128410846" y2="-276.34207232349365" stroke-width="5" stroke="#2b2f31" stroke-linecap="round"></line><line x1="470.2093136361931" x2="443.54127311860213" y1="-303.0101128410846" y2="-276.34207232349365" stroke-width="5" stroke="#2b2f31" stroke-linecap="round"></line><line x1="726.2093136361931" x2="699.5412731186021" y1="-303.0101128410846" y2="-276.34207232349365" stroke-width="5" stroke="#2b2f31" stroke-linecap="round"></line><line x1="214.20931363619306" x2="187.54127311860216" y1="-47.01011284108458" y2="-20.34207232349368" stroke-width="5" stroke="#2b2f31" stroke-linecap="round"></line><line x1="470.2093136361931" x2="443.54127311860213" y1="-47.01011284108458" y2="-20.34207232349368" stroke-width="5" stroke="#2b2f31" stroke-linecap="round"></line><line x1="726.2093136361931" x2="699.5412731186021" y1="-47.01011284108458" y2="-20.34207232349368" stroke-width="5" stroke="#2b2f31" stroke-linecap="round"></line><line x1="214.20931363619306" x2="187.54127311860216" y1="208.98988715891542" y2="235.65792767650632" stroke-width="5" stroke="#2b2f31" stroke-linecap="round"></line><line x1="470.2093136361931" x2="443.54127311860213" y1="208.98988715891542" y2="235.65792767650632" stroke-width="5" stroke="#2b2f31" stroke-linecap="round"></line><line x1="726.2093136361931" x2="699.5412731186021" y1="208.98988715891542" y2="235.65792767650632" stroke-width="5" stroke="#2b2f31" stroke-linecap="round"></line><line x1="229.87630048773443" x2="217.52666246386977" y1="53.94587325897308" y2="66.29551128283774" stroke-width="5" stroke="#2b2f31" stroke-linecap="round"></line><line x1="229.87630048773443" x2="217.52666246386977" y1="-458.05412674102695" y2="-445.70448871716223" stroke-width="5" stroke="#2b2f31" stroke-linecap="round"></line><line x1="485.8763004877344" x2="473.5266624638698" y1="-458.05412674102695" y2="-445.70448871716223" stroke-width="5" stroke="#2b2f31" stroke-linecap="round"></line><line x1="741.8763004877344" x2="729.5266624638698" y1="-458.05412674102695" y2="-445.70448871716223" stroke-width="5" stroke="#2b2f31" stroke-linecap="round"></line><line x1="229.87630048773443" x2="217.52666246386977" y1="-202.05412674102692" y2="-189.70448871716226" stroke-width="5" stroke="#2b2f31" stroke-linecap="round"></line><line x1="485.8763004877344" x2="473.5266624638698" y1="-202.05412674102692" y2="-189.70448871716226" stroke-width="5" stroke="#2b2f31" stroke-linecap="round"></line><line x1="741.8763004877344" x2="729.5266624638698" y1="-202.05412674102692" y2="-189.70448871716226" stroke-width="5" stroke="#2b2f31" stroke-linecap="round"></line><line x1="229.87630048773443" x2="217.52666246386977" y1="53.94587325897308" y2="66.29551128283774" stroke-width="5" stroke="#2b2f31" stroke-linecap="round"></line><line x1="485.8763004877344" x2="473.5266624638698" y1="53.94587325897308" y2="66.29551128283774" stroke-width="5" stroke="#2b2f31" stroke-linecap="round"></line><line x1="741.8763004877344" x2="729.5266624638698" y1="53.94587325897308" y2="66.29551128283774" stroke-width="5" stroke="#2b2f31" stroke-linecap="round"></line>
  <animateTransform attributeName="transform" type="translate" values="0 0;-256 256" keyTimes="0;1" repeatCount="indefinite" dur="16.666666666666668s"></animateTransform>
</g><g>
  <line x1="28.77304281120398" x2="18.239427698027455" y1="246.8520217884179" y2="257.3856369015944" stroke-width="5" stroke="#313538" stroke-linecap="round"></line><line x1="28.77304281120398" x2="18.239427698027455" y1="-265.1479782115821" y2="-254.6143630984056" stroke-width="5" stroke="#313538" stroke-linecap="round"></line><line x1="284.773042811204" x2="274.23942769802744" y1="-265.1479782115821" y2="-254.6143630984056" stroke-width="5" stroke="#313538" stroke-linecap="round"></line><line x1="540.7730428112039" x2="530.2394276980275" y1="-265.1479782115821" y2="-254.6143630984056" stroke-width="5" stroke="#313538" stroke-linecap="round"></line><line x1="28.77304281120398" x2="18.239427698027455" y1="-9.147978211582114" y2="1.3856369015944097" stroke-width="5" stroke="#313538" stroke-linecap="round"></line><line x1="284.773042811204" x2="274.23942769802744" y1="-9.147978211582114" y2="1.3856369015944097" stroke-width="5" stroke="#313538" stroke-linecap="round"></line><line x1="540.7730428112039" x2="530.2394276980275" y1="-9.147978211582114" y2="1.3856369015944097" stroke-width="5" stroke="#313538" stroke-linecap="round"></line><line x1="28.77304281120398" x2="18.239427698027455" y1="246.8520217884179" y2="257.3856369015944" stroke-width="5" stroke="#313538" stroke-linecap="round"></line><line x1="284.773042811204" x2="274.23942769802744" y1="246.8520217884179" y2="257.3856369015944" stroke-width="5" stroke="#313538" stroke-linecap="round"></line><line x1="540.7730428112039" x2="530.2394276980275" y1="246.8520217884179" y2="257.3856369015944" stroke-width="5" stroke="#313538" stroke-linecap="round"></line><line x1="259.15830045588456" x2="240.81283179159067" y1="211.32807000067896" y2="229.67353866497285" stroke-width="5" stroke="#313538" stroke-linecap="round"></line><line x1="259.15830045588456" x2="240.81283179159067" y1="-300.67192999932104" y2="-282.32646133502715" stroke-width="5" stroke="#313538" stroke-linecap="round"></line><line x1="515.1583004558845" x2="496.81283179159067" y1="-300.67192999932104" y2="-282.32646133502715" stroke-width="5" stroke="#313538" stroke-linecap="round"></line><line x1="771.1583004558845" x2="752.8128317915907" y1="-300.67192999932104" y2="-282.32646133502715" stroke-width="5" stroke="#313538" stroke-linecap="round"></line><line x1="259.15830045588456" x2="240.81283179159067" y1="-44.67192999932104" y2="-26.326461335027147" stroke-width="5" stroke="#313538" stroke-linecap="round"></line><line x1="515.1583004558845" x2="496.81283179159067" y1="-44.67192999932104" y2="-26.326461335027147" stroke-width="5" stroke="#313538" stroke-linecap="round"></line><line x1="771.1583004558845" x2="752.8128317915907" y1="-44.67192999932104" y2="-26.326461335027147" stroke-width="5" stroke="#313538" stroke-linecap="round"></line><line x1="259.15830045588456" x2="240.81283179159067" y1="211.32807000067896" y2="229.67353866497285" stroke-width="5" stroke="#313538" stroke-linecap="round"></line><line x1="515.1583004558845" x2="496.81283179159067" y1="211.32807000067896" y2="229.67353866497285" stroke-width="5" stroke="#313538" stroke-linecap="round"></line><line x1="771.1583004558845" x2="752.8128317915907" y1="211.32807000067896" y2="229.67353866497285" stroke-width="5" stroke="#313538" stroke-linecap="round"></line><line x1="3.1583004558845573" x2="-15.187168208409332" y1="211.32807000067896" y2="229.67353866497285" stroke-width="5" stroke="#313538" stroke-linecap="round"></line><line x1="18.13030031933785" x2="-4.7626480035092005" y1="35.58259079053697" y2="58.475539113384016" stroke-width="5" stroke="#313538" stroke-linecap="round"></line><line x1="18.13030031933785" x2="-4.7626480035092005" y1="-476.417409209463" y2="-453.524460886616" stroke-width="5" stroke="#313538" stroke-linecap="round"></line><line x1="274.13030031933783" x2="251.2373519964908" y1="-476.417409209463" y2="-453.524460886616" stroke-width="5" stroke="#313538" stroke-linecap="round"></line><line x1="530.1303003193378" x2="507.2373519964908" y1="-476.417409209463" y2="-453.524460886616" stroke-width="5" stroke="#313538" stroke-linecap="round"></line><line x1="18.13030031933785" x2="-4.7626480035092005" y1="-220.41740920946302" y2="-197.524460886616" stroke-width="5" stroke="#313538" stroke-linecap="round"></line><line x1="274.13030031933783" x2="251.2373519964908" y1="-220.41740920946302" y2="-197.524460886616" stroke-width="5" stroke="#313538" stroke-linecap="round"></line><line x1="530.1303003193378" x2="507.2373519964908" y1="-220.41740920946302" y2="-197.524460886616" stroke-width="5" stroke="#313538" stroke-linecap="round"></line><line x1="18.13030031933785" x2="-4.7626480035092005" y1="35.58259079053697" y2="58.475539113384016" stroke-width="5" stroke="#313538" stroke-linecap="round"></line><line x1="274.13030031933783" x2="251.2373519964908" y1="35.58259079053697" y2="58.475539113384016" stroke-width="5" stroke="#313538" stroke-linecap="round"></line><line x1="530.1303003193378" x2="507.2373519964908" y1="35.58259079053697" y2="58.475539113384016" stroke-width="5" stroke="#313538" stroke-linecap="round"></line><line x1="28.558175175423457" x2="1.4870967513658133" y1="192.05183618560193" y2="219.12291460965957" stroke-width="5" stroke="#313538" stroke-linecap="round"></line><line x1="28.558175175423457" x2="1.4870967513658133" y1="-319.9481638143981" y2="-292.8770853903404" stroke-width="5" stroke="#313538" stroke-linecap="round"></line><line x1="284.55817517542346" x2="257.4870967513658" y1="-319.9481638143981" y2="-292.8770853903404" stroke-width="5" stroke="#313538" stroke-linecap="round"></line><line x1="540.5581751754235" x2="513.4870967513658" y1="-319.9481638143981" y2="-292.8770853903404" stroke-width="5" stroke="#313538" stroke-linecap="round"></line><line x1="28.558175175423457" x2="1.4870967513658133" y1="-63.94816381439807" y2="-36.877085390340426" stroke-width="5" stroke="#313538" stroke-linecap="round"></line><line x1="284.55817517542346" x2="257.4870967513658" y1="-63.94816381439807" y2="-36.877085390340426" stroke-width="5" stroke="#313538" stroke-linecap="round"></line><line x1="540.5581751754235" x2="513.4870967513658" y1="-63.94816381439807" y2="-36.877085390340426" stroke-width="5" stroke="#313538" stroke-linecap="round"></line><line x1="28.558175175423457" x2="1.4870967513658133" y1="192.05183618560193" y2="219.12291460965957" stroke-width="5" stroke="#313538" stroke-linecap="round"></line><line x1="284.55817517542346" x2="257.4870967513658" y1="192.05183618560193" y2="219.12291460965957" stroke-width="5" stroke="#313538" stroke-linecap="round"></line><line x1="540.5581751754235" x2="513.4870967513658" y1="192.05183618560193" y2="219.12291460965957" stroke-width="5" stroke="#313538" stroke-linecap="round"></line><line x1="174.8769469498182" x2="149.2107462533598" y1="187.19041795251218" y2="212.8566186489706" stroke-width="5" stroke="#313538" stroke-linecap="round"></line><line x1="174.8769469498182" x2="149.2107462533598" y1="-324.8095820474878" y2="-299.1433813510294" stroke-width="5" stroke="#313538" stroke-linecap="round"></line><line x1="430.8769469498182" x2="405.2107462533598" y1="-324.8095820474878" y2="-299.1433813510294" stroke-width="5" stroke="#313538" stroke-linecap="round"></line><line x1="686.8769469498181" x2="661.2107462533597" y1="-324.8095820474878" y2="-299.1433813510294" stroke-width="5" stroke="#313538" stroke-linecap="round"></line><line x1="174.8769469498182" x2="149.2107462533598" y1="-68.80958204748782" y2="-43.143381351029404" stroke-width="5" stroke="#313538" stroke-linecap="round"></line><line x1="430.8769469498182" x2="405.2107462533598" y1="-68.80958204748782" y2="-43.143381351029404" stroke-width="5" stroke="#313538" stroke-linecap="round"></line><line x1="686.8769469498181" x2="661.2107462533597" y1="-68.80958204748782" y2="-43.143381351029404" stroke-width="5" stroke="#313538" stroke-linecap="round"></line><line x1="174.8769469498182" x2="149.2107462533598" y1="187.19041795251218" y2="212.8566186489706" stroke-width="5" stroke="#313538" stroke-linecap="round"></line><line x1="430.8769469498182" x2="405.2107462533598" y1="187.19041795251218" y2="212.8566186489706" stroke-width="5" stroke="#313538" stroke-linecap="round"></line><line x1="686.8769469498181" x2="661.2107462533597" y1="187.19041795251218" y2="212.8566186489706" stroke-width="5" stroke="#313538" stroke-linecap="round"></line><line x1="178.13595036180163" x2="157.42381323041036" y1="-0.6502819891261424" y2="20.06185514226513" stroke-width="5" stroke="#313538" stroke-linecap="round"></line><line x1="178.13595036180163" x2="157.42381323041036" y1="-512.6502819891261" y2="-491.93814485773487" stroke-width="5" stroke="#313538" stroke-linecap="round"></line><line x1="434.13595036180163" x2="413.42381323041036" y1="-512.6502819891261" y2="-491.93814485773487" stroke-width="5" stroke="#313538" stroke-linecap="round"></line><line x1="690.1359503618016" x2="669.4238132304104" y1="-512.6502819891261" y2="-491.93814485773487" stroke-width="5" stroke="#313538" stroke-linecap="round"></line><line x1="178.13595036180163" x2="157.42381323041036" y1="-256.65028198912614" y2="-235.93814485773487" stroke-width="5" stroke="#313538" stroke-linecap="round"></line><line x1="434.13595036180163" x2="413.42381323041036" y1="-256.65028198912614" y2="-235.93814485773487" stroke-width="5" stroke="#313538" stroke-linecap="round"></line><line x1="690.1359503618016" x2="669.4238132304104" y1="-256.65028198912614" y2="-235.93814485773487" stroke-width="5" stroke="#313538" stroke-linecap="round"></line><line x1="178.13595036180163" x2="157.42381323041036" y1="-0.6502819891261424" y2="20.06185514226513" stroke-width="5" stroke="#313538" stroke-linecap="round"></line><line x1="434.13595036180163" x2="413.42381323041036" y1="-0.6502819891261424" y2="20.06185514226513" stroke-width="5" stroke="#313538" stroke-linecap="round"></line><line x1="690.1359503618016" x2="669.4238132304104" y1="-0.6502819891261424" y2="20.06185514226513" stroke-width="5" stroke="#313538" stroke-linecap="round"></line><line x1="178.13595036180163" x2="157.42381323041036" y1="255.34971801087386" y2="276.06185514226513" stroke-width="5" stroke="#313538" stroke-linecap="round"></line><line x1="129.28746060101525" x2="118.53384021167653" y1="11.162260249747597" y2="21.915880639086303" stroke-width="5" stroke="#313538" stroke-linecap="round"></line><line x1="129.28746060101525" x2="118.53384021167653" y1="-500.8377397502524" y2="-490.0841193609137" stroke-width="5" stroke="#313538" stroke-linecap="round"></line><line x1="385.28746060101525" x2="374.53384021167653" y1="-500.8377397502524" y2="-490.0841193609137" stroke-width="5" stroke="#313538" stroke-linecap="round"></line><line x1="641.2874606010153" x2="630.5338402116765" y1="-500.8377397502524" y2="-490.0841193609137" stroke-width="5" stroke="#313538" stroke-linecap="round"></line><line x1="129.28746060101525" x2="118.53384021167653" y1="-244.8377397502524" y2="-234.0841193609137" stroke-width="5" stroke="#313538" stroke-linecap="round"></line><line x1="385.28746060101525" x2="374.53384021167653" y1="-244.8377397502524" y2="-234.0841193609137" stroke-width="5" stroke="#313538" stroke-linecap="round"></line><line x1="641.2874606010153" x2="630.5338402116765" y1="-244.8377397502524" y2="-234.0841193609137" stroke-width="5" stroke="#313538" stroke-linecap="round"></line><line x1="129.28746060101525" x2="118.53384021167653" y1="11.162260249747597" y2="21.915880639086303" stroke-width="5" stroke="#313538" stroke-linecap="round"></line><line x1="385.28746060101525" x2="374.53384021167653" y1="11.162260249747597" y2="21.915880639086303" stroke-width="5" stroke="#313538" stroke-linecap="round"></line><line x1="641.2874606010153" x2="630.5338402116765" y1="11.162260249747597" y2="21.915880639086303" stroke-width="5" stroke="#313538" stroke-linecap="round"></line><line x1="123.90125043060694" x2="113.13552261781335" y1="22.135515890903473" y2="32.90124370369706" stroke-width="5" stroke="#313538" stroke-linecap="round"></line><line x1="123.90125043060694" x2="113.13552261781335" y1="-489.8644841090965" y2="-479.09875629630295" stroke-width="5" stroke="#313538" stroke-linecap="round"></line><line x1="379.9012504306069" x2="369.13552261781336" y1="-489.8644841090965" y2="-479.09875629630295" stroke-width="5" stroke="#313538" stroke-linecap="round"></line><line x1="635.901250430607" x2="625.1355226178133" y1="-489.8644841090965" y2="-479.09875629630295" stroke-width="5" stroke="#313538" stroke-linecap="round"></line><line x1="123.90125043060694" x2="113.13552261781335" y1="-233.86448410909654" y2="-223.09875629630295" stroke-width="5" stroke="#313538" stroke-linecap="round"></line><line x1="379.9012504306069" x2="369.13552261781336" y1="-233.86448410909654" y2="-223.09875629630295" stroke-width="5" stroke="#313538" stroke-linecap="round"></line><line x1="635.901250430607" x2="625.1355226178133" y1="-233.86448410909654" y2="-223.09875629630295" stroke-width="5" stroke="#313538" stroke-linecap="round"></line><line x1="123.90125043060694" x2="113.13552261781335" y1="22.135515890903473" y2="32.90124370369706" stroke-width="5" stroke="#313538" stroke-linecap="round"></line><line x1="379.9012504306069" x2="369.13552261781336" y1="22.135515890903473" y2="32.90124370369706" stroke-width="5" stroke="#313538" stroke-linecap="round"></line><line x1="635.901250430607" x2="625.1355226178133" y1="22.135515890903473" y2="32.90124370369706" stroke-width="5" stroke="#313538" stroke-linecap="round"></line><line x1="67.92640941679164" x2="44.805481613361756" y1="164.9119552763104" y2="188.0328830797403" stroke-width="5" stroke="#313538" stroke-linecap="round"></line><line x1="67.92640941679164" x2="44.805481613361756" y1="-347.08804472368956" y2="-323.96711692025974" stroke-width="5" stroke="#313538" stroke-linecap="round"></line><line x1="323.92640941679167" x2="300.80548161336174" y1="-347.08804472368956" y2="-323.96711692025974" stroke-width="5" stroke="#313538" stroke-linecap="round"></line><line x1="579.9264094167917" x2="556.8054816133617" y1="-347.08804472368956" y2="-323.96711692025974" stroke-width="5" stroke="#313538" stroke-linecap="round"></line><line x1="67.92640941679164" x2="44.805481613361756" y1="-91.08804472368959" y2="-67.96711692025971" stroke-width="5" stroke="#313538" stroke-linecap="round"></line><line x1="323.92640941679167" x2="300.80548161336174" y1="-91.08804472368959" y2="-67.96711692025971" stroke-width="5" stroke="#313538" stroke-linecap="round"></line><line x1="579.9264094167917" x2="556.8054816133617" y1="-91.08804472368959" y2="-67.96711692025971" stroke-width="5" stroke="#313538" stroke-linecap="round"></line><line x1="67.92640941679164" x2="44.805481613361756" y1="164.9119552763104" y2="188.0328830797403" stroke-width="5" stroke="#313538" stroke-linecap="round"></line><line x1="323.92640941679167" x2="300.80548161336174" y1="164.9119552763104" y2="188.0328830797403" stroke-width="5" stroke="#313538" stroke-linecap="round"></line><line x1="579.9264094167917" x2="556.8054816133617" y1="164.9119552763104" y2="188.0328830797403" stroke-width="5" stroke="#313538" stroke-linecap="round"></line><line x1="266.89195456845664" x2="238.9630660608891" y1="196.09814039222078" y2="224.02702889978832" stroke-width="5" stroke="#313538" stroke-linecap="round"></line><line x1="266.89195456845664" x2="238.9630660608891" y1="-315.9018596077792" y2="-287.9729711002117" stroke-width="5" stroke="#313538" stroke-linecap="round"></line><line x1="522.8919545684566" x2="494.9630660608891" y1="-315.9018596077792" y2="-287.9729711002117" stroke-width="5" stroke="#313538" stroke-linecap="round"></line><line x1="778.8919545684566" x2="750.9630660608891" y1="-315.9018596077792" y2="-287.9729711002117" stroke-width="5" stroke="#313538" stroke-linecap="round"></line><line x1="266.89195456845664" x2="238.9630660608891" y1="-59.901859607779215" y2="-31.97297110021168" stroke-width="5" stroke="#313538" stroke-linecap="round"></line><line x1="522.8919545684566" x2="494.9630660608891" y1="-59.901859607779215" y2="-31.97297110021168" stroke-width="5" stroke="#313538" stroke-linecap="round"></line><line x1="778.8919545684566" x2="750.9630660608891" y1="-59.901859607779215" y2="-31.97297110021168" stroke-width="5" stroke="#313538" stroke-linecap="round"></line><line x1="266.89195456845664" x2="238.9630660608891" y1="196.09814039222078" y2="224.02702889978832" stroke-width="5" stroke="#313538" stroke-linecap="round"></line><line x1="522.8919545684566" x2="494.9630660608891" y1="196.09814039222078" y2="224.02702889978832" stroke-width="5" stroke="#313538" stroke-linecap="round"></line><line x1="778.8919545684566" x2="750.9630660608891" y1="196.09814039222078" y2="224.02702889978832" stroke-width="5" stroke="#313538" stroke-linecap="round"></line><line x1="10.89195456845664" x2="-17.036933939110895" y1="196.09814039222078" y2="224.02702889978832" stroke-width="5" stroke="#313538" stroke-linecap="round"></line><line x1="40.79287681667488" x2="23.09719040916032" y1="85.81360126128955" y2="103.5092876688041" stroke-width="5" stroke="#313538" stroke-linecap="round"></line><line x1="40.79287681667488" x2="23.09719040916032" y1="-426.18639873871047" y2="-408.4907123311959" stroke-width="5" stroke="#313538" stroke-linecap="round"></line><line x1="296.7928768166749" x2="279.0971904091603" y1="-426.18639873871047" y2="-408.4907123311959" stroke-width="5" stroke="#313538" stroke-linecap="round"></line><line x1="552.7928768166748" x2="535.0971904091604" y1="-426.18639873871047" y2="-408.4907123311959" stroke-width="5" stroke="#313538" stroke-linecap="round"></line><line x1="40.79287681667488" x2="23.09719040916032" y1="-170.18639873871047" y2="-152.49071233119588" stroke-width="5" stroke="#313538" stroke-linecap="round"></line><line x1="296.7928768166749" x2="279.0971904091603" y1="-170.18639873871047" y2="-152.49071233119588" stroke-width="5" stroke="#313538" stroke-linecap="round"></line><line x1="552.7928768166748" x2="535.0971904091604" y1="-170.18639873871047" y2="-152.49071233119588" stroke-width="5" stroke="#313538" stroke-linecap="round"></line><line x1="40.79287681667488" x2="23.09719040916032" y1="85.81360126128955" y2="103.5092876688041" stroke-width="5" stroke="#313538" stroke-linecap="round"></line><line x1="296.7928768166749" x2="279.0971904091603" y1="85.81360126128955" y2="103.5092876688041" stroke-width="5" stroke="#313538" stroke-linecap="round"></line><line x1="552.7928768166748" x2="535.0971904091604" y1="85.81360126128955" y2="103.5092876688041" stroke-width="5" stroke="#313538" stroke-linecap="round"></line>
  <animateTransform attributeName="transform" type="translate" values="0 0;-256 256" keyTimes="0;1" repeatCount="indefinite" dur="11.11111111111111s"></animateTransform>
</g></g>
  </pattern>
</defs>
<rect x="0" y="0" width="1084" height="322" fill="url(#pid-0.2365982460873859)"></rect>
</svg>